HIERARCHY
ROOT joint_Root
{
	OFFSET 0.0 0.0 0.0
	CHANNELS 6 Xposition Yposition Zposition Zrotation Xrotation Yrotation 
	JOINT Hips
	{
		OFFSET -17.1583 93.1646 452.98
		CHANNELS 6 Xposition Yposition Zposition Zrotation Xrotation Yrotation 
		JOINT Spine
		{
			OFFSET 15.7357 0.0 0.0
			CHANNELS 6 Xposition Yposition Zposition Zrotation Xrotation Yrotation 
			JOINT Chest
			{
				OFFSET 8.98455 -0.406207 0.0
				CHANNELS 6 Xposition Yposition Zposition Zrotation Xrotation Yrotation 
				JOINT Neck
				{
					OFFSET 16.3773 0.0 0.0
					CHANNELS 6 Xposition Yposition Zposition Zrotation Xrotation Yrotation 
					JOINT Head
					{
						OFFSET 6.45672 0.0 0.0
						CHANNELS 6 Xposition Yposition Zposition Zrotation Xrotation Yrotation 
						End Site
						{
							OFFSET 0.0 0.0 0.0
						}
					}
				}
				JOINT Shoulder_L
				{
					OFFSET 12.9942 -0.242716 4.98039
					CHANNELS 6 Xposition Yposition Zposition Zrotation Xrotation Yrotation 
					JOINT UpperArm_L
					{
						OFFSET 5.34809 0.0 0.0
						CHANNELS 6 Xposition Yposition Zposition Zrotation Xrotation Yrotation 
						JOINT LowerArm_L
						{
							OFFSET 24.3286 1.87007e-05 0.0
							CHANNELS 6 Xposition Yposition Zposition Zrotation Xrotation Yrotation 
							JOINT Hand_L
							{
								OFFSET 22.2916 0.0 0.0
								CHANNELS 6 Xposition Yposition Zposition Zrotation Xrotation Yrotation 
								End Site
								{
									OFFSET 0.0 0.0 0.0
								}
							}
						}
					}
				}
				JOINT Shoulder_R
				{
					OFFSET 12.9945 -0.242716 -4.98039
					CHANNELS 6 Xposition Yposition Zposition Zrotation Xrotation Yrotation 
					JOINT UpperArm_R
					{
						OFFSET -5.34813 0.0 0.0
						CHANNELS 6 Xposition Yposition Zposition Zrotation Xrotation Yrotation 
						JOINT LowerArm_R
						{
							OFFSET -24.3289 0.000322201 0.0
							CHANNELS 6 Xposition Yposition Zposition Zrotation Xrotation Yrotation 
							JOINT Hand_R
							{
								OFFSET -22.2915 -0.000108084 0.0
								CHANNELS 6 Xposition Yposition Zposition Zrotation Xrotation Yrotation 
								End Site
								{
									OFFSET 0.0 0.0 0.0
								}
							}
						}
					}
				}
			}
		}
		JOINT UpperLeg_L
		{
			OFFSET -2.19248 -6.46944 0.0
			CHANNELS 6 Xposition Yposition Zposition Zrotation Xrotation Yrotation 
			JOINT LowerLeg_L
			{
				OFFSET 39.0811 0.0 -1.23785e-05
				CHANNELS 6 Xposition Yposition Zposition Zrotation Xrotation Yrotation 
				JOINT Foot_L
				{
					OFFSET 40.9854 0.0 -1.26872e-05
					CHANNELS 6 Xposition Yposition Zposition Zrotation Xrotation Yrotation 
					JOINT Toes_L
					{
						OFFSET 11.7543 0.0 0.0
						CHANNELS 6 Xposition Yposition Zposition Zrotation Xrotation Yrotation 
						End Site
						{
							OFFSET 0.0 0.0 0.0
						}
					}
				}
			}
		}
		JOINT UpperLeg_R
		{
			OFFSET -2.19251 6.46944 0.0
			CHANNELS 6 Xposition Yposition Zposition Zrotation Xrotation Yrotation 
			JOINT LowerLeg_R
			{
				OFFSET -39.0811 -0.00228153 -0.0401928
				CHANNELS 6 Xposition Yposition Zposition Zrotation Xrotation Yrotation 
				JOINT Foot_R
				{
					OFFSET -40.9854 0.0 0.0
					CHANNELS 6 Xposition Yposition Zposition Zrotation Xrotation Yrotation 
					JOINT Toes_R
					{
						OFFSET -11.7543 0.0 0.0
						CHANNELS 6 Xposition Yposition Zposition Zrotation Xrotation Yrotation 
						End Site
						{
							OFFSET 0.0 0.0 0.0
						}
					}
				}
			}
		}
	}
}
MOTION
Frames:	4
Frame Time:	0.0333333
0.000000 0.000000 0.000000 0.000000 0.000000 -0.000000 -3.193670 92.034100 -0.805208 86.513400 2.024490 7.431020 15.735700 0.000005 -0.000001 91.522300 85.728200 -89.519000 8.984550 -0.406207 -0.000000 0.775838 0.104756 4.002770 16.377300 -0.000001 -0.000001 12.901600 2.339270 -11.023700 6.456720 -0.000001 -0.000000 -3.041330 2.603520 -15.466500 12.994200 -0.242716 4.980390 -93.503200 9.471240 -69.593100 5.348090 -0.000007 -0.000001 -71.377300 -16.356200 -2.972220 24.328600 0.000019 0.000005 42.840300 -38.827900 -124.063000 22.291600 -0.000001 0.000005 56.123700 4.870510 9.968370 12.994500 -0.242716 -4.980390 87.619200 6.533960 -69.929400 -5.348130 -0.000001 -0.000004 -68.248200 31.077200 -6.221550 -24.328900 0.000322 -0.000009 1.156760 4.361240 -14.883300 -22.291500 -0.000108 -0.000004 -1.899100 5.306320 -0.105505 -2.192480 -6.469440 -0.000000 -175.609000 1.088090 0.185992 39.081100 -0.000007 -0.000012 0.327249 -0.660929 26.342300 40.985400 -0.000006 -0.000013 1.264190 5.304050 -74.820100 11.754300 -0.000000 0.000003 -0.001231 0.186268 -9.020590 -2.192510 6.469440 -0.000001 -173.348000 11.218100 -174.046000 -39.081100 -0.002282 -0.040193 0.151821 -0.499088 16.569500 -40.985400 0.000008 0.000006 5.367130 0.528680 -71.505500 -11.754300 -0.000006 -0.000006 -0.009419 0.266907 -5.730820
0.000000 0.000000 0.000000 0.000000 0.000000 -0.000000 -3.198200 92.030300 -0.826561 86.509700 2.102450 7.413900 15.735700 0.000005 -0.000001 91.298400 85.732100 -89.287900 8.984550 -0.406207 -0.000000 0.769533 0.070662 4.017270 16.377300 -0.000001 -0.000001 12.959100 2.343730 -11.136000 6.456720 -0.000001 -0.000000 -3.085570 2.573930 -15.603900 12.994200 -0.242716 4.980390 -93.519100 9.546890 -69.655600 5.348090 -0.000007 -0.000001 -71.076800 -16.065600 -3.362700 24.328600 0.000019 0.000005 46.964900 -41.068900 -121.524000 22.291600 -0.000001 0.000005 57.472500 4.968790 7.979390 12.994500 -0.242716 -4.980390 87.601300 6.561060 -69.866900 -5.348130 -0.000001 -0.000004 -68.185100 31.068400 -6.248960 -24.328900 0.000322 -0.000009 1.154700 4.358480 -14.867100 -22.291500 -0.000108 -0.000004 -1.920230 5.307110 -0.127840 -2.192480 -6.469440 -0.000000 -175.588000 1.058770 0.116037 39.081100 -0.000007 -0.000012 0.329803 -0.664830 26.385400 40.985400 -0.000006 -0.000013 1.291180 5.424110 -74.796300 11.754300 -0.000000 0.000003 -0.001211 0.185990 -9.031890 -2.192510 6.469440 -0.000001 -173.326000 11.243600 -174.104000 -39.081100 -0.002282 -0.040193 0.153340 -0.503040 16.605400 -40.985400 0.000008 0.000006 5.375670 0.501148 -71.500900 -11.754300 -0.000006 -0.000006 -0.009169 0.264990 -5.809200
0.000000 0.000000 0.000000 0.000000 0.000000 -0.000000 -3.207960 92.034100 -0.833393 86.538800 2.127830 7.466480 15.735700 0.000005 -0.000001 91.114200 85.714500 -89.091200 8.984550 -0.406207 -0.000000 0.805735 0.043805 4.042530 16.377300 -0.000001 -0.000001 13.051200 2.323490 -11.236200 6.456720 -0.000001 -0.000000 -3.215140 2.664040 -15.804000 12.994200 -0.242716 4.980390 -93.522000 9.544840 -69.636300 5.348090 -0.000007 -0.000001 -71.079600 -16.409500 -3.902630 24.328600 0.000019 0.000005 46.945400 -40.506100 -121.251000 22.291600 -0.000001 0.000005 58.063300 4.969280 7.965890 12.994500 -0.242716 -4.980390 87.585900 6.595990 -69.845600 -5.348130 -0.000001 -0.000004 -68.123300 31.012300 -6.248070 -24.328900 0.000322 -0.000009 1.157800 4.356790 -14.910700 -22.291500 -0.000108 -0.000004 -1.945320 5.308350 -0.162858 -2.192480 -6.469440 -0.000000 -175.607000 1.053040 0.181178 39.081100 -0.000007 -0.000012 0.328695 -0.663568 26.352000 40.985400 -0.000006 -0.000013 1.288080 5.453550 -74.813200 11.754300 -0.000000 0.000003 -0.001175 0.185493 -9.052100 -2.192510 6.469440 -0.000001 -173.334000 11.161100 -174.062000 -39.081100 -0.002282 -0.040193 0.153730 -0.504199 16.610100 -40.985400 0.000008 0.000006 5.356970 0.367447 -71.530600 -11.754300 -0.000006 -0.000006 -0.009474 0.267329 -5.713590
0.000000 0.000000 0.000000 0.000000 0.000000 -0.000000 -3.228360 92.033200 -0.847776 86.560800 2.123970 7.450430 15.735700 0.000005 -0.000001 90.986200 85.720100 -88.941900 8.984550 -0.406207 -0.000000 0.795354 0.022992 4.085090 16.377300 -0.000001 -0.000001 13.030000 2.375410 -11.272200 6.456720 -0.000001 -0.000000 -3.176670 2.779900 -15.980600 12.994200 -0.242716 4.980390 -93.516700 9.501610 -69.580600 5.348090 -0.000007 -0.000001 -71.332700 -17.334200 -4.387840 24.328600 0.000019 0.000005 43.442900 -37.673400 -122.834000 22.291600 -0.000001 0.000005 57.161000 4.886400 9.652980 12.994500 -0.242716 -4.980390 87.569400 6.648170 -69.864700 -5.348130 -0.000001 -0.000004 -68.041900 31.006100 -6.255820 -24.328900 0.000322 -0.000009 1.123290 4.225330 -14.915600 -22.291500 -0.000108 -0.000004 -1.994610 5.310920 -0.235900 -2.192480 -6.469440 -0.000000 -175.608000 1.028180 0.150188 39.081100 -0.000007 -0.000012 0.327073 -0.660323 26.351000 40.985400 -0.000006 -0.000013 1.275320 5.468810 -74.777600 11.754300 -0.000000 0.000003 -0.001248 0.186494 -9.011420 -2.192510 6.469440 -0.000001 -173.338000 11.167600 -174.103000 -39.081100 -0.002282 -0.040193 0.154037 -0.504702 16.626400 -40.985400 0.000008 0.000006 5.374370 0.364344 -71.459500 -11.754300 -0.000006 -0.000006 -0.009201 0.265234 -5.799220
